<svg xmlns="http://www.w3.org/2000/svg" enable-background="new 0 0 60 60" viewBox="0 0 60 60" id="advertising">
  <path d="M50.9400024 8.0299988c-1.6174316 0-2.9277954 1.2588501-3.0386353 2.8481445L24.75 17.3500061v20.6400146l23.1513672 6.4718628c.1107178 1.5901489 1.4211426 2.8581543 3.0386353 2.8581543C52.6300049 47.3200378 54 45.940033 54 44.2500305V11.0899963C54 9.3999939 52.6300049 8.0299988 50.9400024 8.0299988zM20.3231201 37.6700134H22.75v-20H10.0900269C7.8400269 17.6700134 6 19.5000305 6 21.7600403v11.8099976c0 2.2599487 1.8400269 4.0999756 4.0900269 4.0999756h1.3234863l4.0264893 13.5800171c.1300049.4299927.5200195.7199707.960022.7199707h6.8399658c.3099976 0 .6099854-.1499634.7999878-.3999634s.2400513-.5800171.1500244-.8800049L20.3231201 37.6700134z" fill="#273442" class="color000000 svgShape"></path>
</svg>
