<svg xmlns="http://www.w3.org/2000/svg" enable-background="new 0 0 512 512" viewBox="0 0 512 512" id="CasinoManager">
  <path fill="#f7cb5f" d="M371 321.528h-20l-64.27 46.76-14.93 42.24 28.92 90H381h50v-119C431 348.388 404.14 321.528 371 321.528zM225.31 368.268L161 321.528h-20c-33.14 0-60 26.86-60 60v119h50 79.28l38.32-90L225.31 368.268z" class="color9dcafc svgShape"></path>
  <polygon fill="#e7e7e7" points="221 274.448 221 321.528 256 360.228 291 321.528 291 273.538" class="colorffffff svgShape"></polygon>
  <path fill="#e7e7e7" d="M375.54,29.178c-3.49-5.15-8.48-9.27-14.51-11.68c-19.32-7.73-40.83-7.96-60.31-0.65l-54.7,20.53
			c-17.18,6.45-35.93,7.81-53.75,3.42c-0.12-0.03-0.25-0.06-0.37-0.09c-30.94-7.73-60.9,15.66-60.9,47.54v83.28h250V46.988
			C381,40.488,379.02,34.328,375.54,29.178z" class="colorffffff svgShape"></path>
  <polygon fill="#e7e7e7" points="286.73 368.288 275.19 410.528 254 416.228 235.81 410.528 225.31 368.268 235.267 357.161 256 351.528 274.067 355.028" class="colorffffff svgShape"></polygon>
  <polygon fill="#e7e7e7" points="275.19 410.528 300.72 500.528 210.28 500.528 235.81 410.528" class="colorffffff svgShape"></polygon>
  <path fill="#e7e7e7" d="M170 151.528l5 18.3-5 21.7h-19c-5.52 0-10.52-2.24-14.14-5.86-3.62-3.62-5.86-8.62-5.86-14.14 0-11.05 8.95-20 20-20H170zM381 171.528c0 5.52-2.24 10.52-5.86 14.14-3.62 3.62-8.62 5.86-14.14 5.86h-21l-4.2-20.1 4.2-19.9h21C372.05 151.528 381 160.478 381 171.528z" class="colorffffff svgShape"></path>
  <path fill="#e7e7e7" d="M340,191.528v5c0,34.07-20.05,63.46-49,77.01c-10.93,5.13-23.13,7.99-36,7.99
			c-12.09,0-23.59-2.53-34-7.08c-9.81-4.28-18.64-10.36-26.1-17.82c-15.38-15.38-24.9-36.63-24.9-60.1v-5v-40v-31
			c0,0,91,8.33,110-30l60,30v31V191.528z" class="colorffffff svgShape"></path>
  <polygon fill="#e7e7e7" points="351 321.528 311 381.528 286.73 368.288 256 351.528 291 321.528" class="colorffffff svgShape"></polygon>
  <polygon fill="#e7e7e7" points="256 351.528 225.31 368.268 201 381.528 161 321.528 221 321.528" class="colorffffff svgShape"></polygon>
  <path fill="#273442" d="M371,311.528c-18.204,0-57.921,0-70,0v-31.905c27.825-15.465,47.118-44.495,48.869-78.095H361
				c16.575,0,30-13.424,30-30V46.988c0-42.309-54.638-54.197-93.793-39.502c-35.726,8.293-45.69,28.582-102.883,23.521
				C157.106,21.705,121,49.815,121,88.248v83.28c0,16.576,13.425,30,30,30h9.131c1.792,34.399,21.971,64.009,50.869,79.175v30.825
				c-25.466,0-44.717,0-70,0c-38.598,0-70,31.402-70,70v119c0,5.523,4.477,10,10,10h350c5.523,0,10-4.477,10-10v-119
				C441,342.93,409.598,311.528,371,311.528z M332.315,331.528l-24.56,36.839l-34.244-18.678l21.188-18.161H332.315z
				 M243.368,420.528h24.264l19.857,70h-63.978L243.368,420.528z M268.066,400.528h-24.437l-6.753-27.178L256,362.919l19.096,10.416
				L268.066,400.528z M361,181.528h-11v-20h11c5.514,0,10,4.486,10,10C371,177.049,366.521,181.528,361,181.528z M189.456,50.404
				c69.197,6.178,79.615-16.69,114.777-24.194C329.007,16.913,371,20.555,371,46.988v96.26c-7.343-2.604-12.264-1.422-21-1.72v-21
				c0-3.788-2.14-7.25-5.528-8.944l-60-30c-4.951-2.475-10.974-0.455-13.432,4.503c-12.995,26.219-78.287,26.463-100.128,24.482
				c-5.856-0.539-10.912,4.082-10.912,9.958v21c-6.889,0.265-11.803-0.833-19,1.72v-55C141,62.853,164.866,44.258,189.456,50.404z
				 M141,171.528c0-5.514,4.486-10,10-10h9v20h-9C145.479,181.528,141,177.049,141,171.528z M180,196.528v-65.414
				c32.826,1.158,82.475-2.272,103.455-27.678L330,126.708v69.82c0,41.355-33.645,75-75,75S180,237.883,180,196.528z M281,287.911
				v29.017l-25,21.429l-25-21.429v-28.474C247.034,292.643,264.417,292.636,281,287.911z M217.301,331.528l21.188,18.161
				l-34.244,18.678l-24.56-36.839H217.301z M91,381.528c0-27.57,22.43-50,50-50h14.648l37.031,55.547
				c2.858,4.287,8.537,5.725,13.109,3.232l12.94-7.058l6.735,27.109l-22.742,80.17H141v-59c0-5.523-4.477-10-10-10s-10,4.477-10,10
				v59H91V381.528z M421,490.528h-30v-59.69c0-5.523-4.477-10-10-10s-10,4.477-10,10v59.69h-62.722l-22.404-78.978l7.326-28.34
				l13.01,7.097c4.567,2.492,10.25,1.057,13.109-3.232l37.031-55.547H371c27.57,0,50,22.43,50,50V490.528z" class="color4269a7 svgShape"></path>
  <path fill="#273442" d="M278 226.528c3.314-4.418 2.418-10.686-2-14-4.418-3.313-10.687-2.418-14 2-3.504 4.671-10.497 4.67-14 0-3.314-4.418-9.581-5.314-14-2-4.418 3.314-5.314 9.582-2 14C243.512 241.877 266.494 241.87 278 226.528zM220 160.528c-5.523 0-10 4.477-10 10v10c0 5.523 4.477 10 10 10s10-4.477 10-10v-10C230 165.005 225.523 160.528 220 160.528zM290 190.528c5.523 0 10-4.477 10-10v-10c0-5.523-4.477-10-10-10s-10 4.477-10 10v10C280 186.051 284.477 190.528 290 190.528z" class="color4269a7 svgShape"></path>
</svg>
