<svg xmlns="http://www.w3.org/2000/svg" enable-background="new 0 0 512 512" viewBox="0 0 512 512" id="Assistant">
  <path fill="#f7cb5f" d="M350.46,50.04C326.03,25.61,292.28,10.5,255,10.5c-74.56,0-135,60.44-135,135v189.21l131.4,29.89
			L390,334.12V145.5C390,108.22,374.89,74.47,350.46,50.04z" class="color9dcafc svgShape"></path>
  <polygon fill="#e7e7e7" points="221 331.5 225.8 410.6 256 501.5 285.4 406.6 291 331.5" class="colorffffff svgShape"></polygon>
  <path fill="#e7e7e7" d="M221,284.42v47.08c20.3,16.82,49.7,16.82,70,0v-47.99L221,284.42z" class="colorffffff svgShape"></path>
  <path fill="#e7e7e7" d="M340 128.78v77.72c0 23.47-9.52 44.72-24.9 60.1-6.95 6.95-15.09 12.7-24.1 16.91-10.93 5.13-23.13 7.99-36 7.99-12.09 0-23.59-2.53-34-7.08-18.03-7.87-32.79-21.82-41.71-39.25-5.94-11.6-9.29-24.74-9.29-38.67v-77.71c0 0 106.19 13.27 134.94-34.23C316.83 114.46 340 128.78 340 128.78zM441 401.5v100h-50-11H256l35-170h42.09 11.44H371c6.59 0 12.96.91 19 2.62C419.43 342.39 441 369.43 441 401.5zM221 331.5l35 170H130h-9H71v-100c0-31.34 20.6-57.88 49-66.79 6.63-2.09 13.68-3.21 21-3.21h16.21 10.25 11.45H221z" class="colorffffff svgShape"></path>
  <path fill="#273442" d="M276 222.5c-4.417-3.314-10.687-2.418-14 2-3.503 4.672-10.5 4.669-14 0-3.313-4.417-9.581-5.313-14-2-4.418 3.313-5.313 9.582-2 14 11.512 15.349 34.494 15.342 46 0C281.313 232.082 280.418 225.813 276 222.5zM220 161.5c-5.522 0-10 4.478-10 10v10c0 5.522 4.478 10 10 10s10-4.478 10-10v-10C230 165.978 225.522 161.5 220 161.5zM290 161.5c-5.522 0-10 4.478-10 10v10c0 5.522 4.478 10 10 10s10-4.478 10-10v-10C300 165.978 295.522 161.5 290 161.5z" class="color4269a7 svgShape"></path>
  <path fill="#273442" d="M400,326.963V145.5c0-80.149-64.86-145-145-145c-79.953,0-145,65.047-145,145v182.253
				c-28.761,12.135-49,40.621-49,73.747v100c0,5.522,4.478,10,10,10h370c5.522,0,10-4.478,10-10v-100
				C451,367.615,429.813,338.604,400,326.963z M130,145.5c0-68.925,56.075-125,125-125c69.095,0,125,55.915,125,125v176.52
				c-8.177-0.92-6.722-0.342-79-0.52v-31.879c29.12-16.141,49-47.148,49-83.121v-77.715c0-3.466-1.795-6.685-4.742-8.507
				c-0.211-0.13-21.217-13.24-31.732-30.843c-1.8-3.013-5.047-4.861-8.557-4.871c0.1-0.027-5.499-0.275-8.583,4.822
				c-20.788,34.344-97.391,32.928-125.146,29.485c-5.97-0.745-11.24,3.914-11.24,9.923V206.5c0,36.583,20.694,68.332,51,84.205
				V321.5c-71.289,0.255-71.168-0.584-81,0.775V145.5z M286.751,274.457C237.678,297.494,180,261.839,180,206.5v-66.762
				c39.687,2.742,96.482-0.45,124.569-28.632c8.966,10.65,19.47,18.789,25.431,23.003V206.5
				C330,236.868,312.071,262.626,286.751,274.457z M281,297.888v28.608c-15.088,10.136-34.912,10.136-50,0v-28.058
				C247.263,302.673,264.633,302.541,281,297.888z M276.845,350.659L256,451.91l-20.845-101.251
				C248.655,355.231,263.345,355.231,276.845,350.659z M81,401.5c0-33.084,26.916-60,60-60h71.849l30.882,150H81V401.5z M431,491.5
				H268.269l30.882-150H371c33.084,0,60,26.916,60,60V491.5z" class="color4269a7 svgShape"></path>
  <path fill="#273442" d="M380,406h-50c-5.522,0-10,4.478-10,10s4.478,10,10,10h50c5.522,0,10-4.478,10-10
				S385.522,406,380,406z" class="color4269a7 svgShape"></path>
</svg>
