<svg xmlns="http://www.w3.org/2000/svg" viewBox="0 0 24 24" id="news">
  <path d="m16.25,7v3c0,.138-.112.25-.25.25h-8c-.138,0-.25-.112-.25-.25v-3c0-.138.112-.25.25-.25h8c.138,0,.25.112.25.25Zm4.5-2v14c0,1.517-1.233,2.75-2.75,2.75H6c-1.517,0-2.75-1.233-2.75-2.75V5c0-1.517,1.233-2.75,2.75-2.75h12c1.517,0,2.75,1.233,2.75,2.75Zm-7,12c0-.414-.336-.75-.75-.75h-6c-.414,0-.75.336-.75.75s.336.75.75.75h6c.414,0,.75-.336.75-.75Zm4-3c0-.414-.336-.75-.75-.75H7c-.414,0-.75.336-.75.75s.336.75.75.75h10c.414,0,.75-.336.75-.75Zm0-7c0-.965-.785-1.75-1.75-1.75h-8c-.965,0-1.75.785-1.75,1.75v3c0,.965.785,1.75,1.75,1.75h8c.965,0,1.75-.785,1.75-1.75v-3Z" fill="#273442" class="color000000 svgShape"></path>
</svg>
